<svg id="a6a5a7bb-cada-443d-99fe-ef9f3eb5d600" data-name="Layer 1" xmlns="http://www.w3.org/2000/svg" viewBox="0 0 397.5 165.83"><defs><style>.e06da68c-c7e8-4d1a-9b50-892afece195f{fill:#404041;}</style></defs><path class="e06da68c-c7e8-4d1a-9b50-892afece195f" d="M376.43,116a9.4,9.4,0,1,1-9.36-9.15A9.19,9.19,0,0,1,376.43,116ZM360,116a7.09,7.09,0,0,0,7.14,7.3,7,7,0,0,0,7-7.25A7.06,7.06,0,1,0,360,116Zm5.64,4.79H363.5v-9.14a18.16,18.16,0,0,1,3.51-.28,5.7,5.7,0,0,1,3.18.67,2.53,2.53,0,0,1,.89,2,2.33,2.33,0,0,1-1.9,2.11v.12a2.68,2.68,0,0,1,1.68,2.23,6.77,6.77,0,0,0,.67,2.28h-2.29a7.73,7.73,0,0,1-.73-2.23c-.16-1-.72-1.45-1.89-1.45h-1Zm.05-5.18h1c1.18,0,2.12-.39,2.12-1.34s-.61-1.4-2-1.4a4.75,4.75,0,0,0-1.17.12Z"/><path class="e06da68c-c7e8-4d1a-9b50-892afece195f" d="M217.35,75a1,1,0,0,0-.48-.19l-6.19-.29L210.63,83l6.19.08a.55.55,0,0,0,.48-.16l1-.89a.76.76,0,0,0,.18-.44l0-5.26a.62.62,0,0,0-.17-.4Z"/><path class="e06da68c-c7e8-4d1a-9b50-892afece195f" d="M383.72,83.6a2.92,2.92,0,0,0-1.08-.55c-4.8-1.17-9.69-1.94-14.49-3.07-14.57-3.45-29.09-7-43.65-10.49-5.07-1.2-10.25-2-15.27-3.36-8.36-2.28-16.57-5.12-25-7.26-10.25-2.62-20.75-4.32-30.9-7.26-7.87-2.27-16-2.89-23.92-5.51C212.16,40.39,194,37.22,176.22,33c-2.39-.57-4.73-1.4-7.14-1.93-10.91-2.39-21.86-4.61-32.75-7.11-11.73-2.69-23.41-5.62-35.11-8.46-3.93-1-7.86-1.86-11.76-2.93-5.2-1.42-10.32-3.19-15.57-4.38v-1a2,2,0,0,0-.6-1.45,2,2,0,0,0-1.44-.61l-4.58,0c-4.46,0-7.24.5-8.22,1.57C57.86,8,57.78,9.8,58,12.49c.34,3.54.5,7,.68,10.84.07,1.36.13,2.73.21,4.06v.2h-.22a5.24,5.24,0,0,1-1.8-.08L41.59,24.17q-11-2.42-21.93-4.77a4.8,4.8,0,0,0-3.08.75,1.34,1.34,0,0,0-.62.9,36.24,36.24,0,0,0-.18,5.13c0,.61,0,1.24,0,1.87v.71l19.33,3.77a.54.54,0,0,1,0,1.06L15.64,36.53a1.09,1.09,0,0,0-.91,1.25L16.12,46a1.09,1.09,0,0,0,1.29.88l7.72-1.63L49.6,40.05c.47-.1.93-.23,1.39-.36a15.06,15.06,0,0,1,2-.44,16,16,0,0,1,5.87.08l-.62,89.18-7-1.11c-10.38-2-21.11-4-31.82-6-1.33-.25-3.65.71-4.19,2a18.4,18.4,0,0,0-1.09,4.52c-.09.58-.17,1.15-.28,1.71l-.17.87L36,134.2a.24.24,0,0,1,0,.48l-20.81,4.21a.79.79,0,0,0-.63.87l1,7.46a.78.78,0,0,0,.91.67l41.73-7.32L58,159.28a2.19,2.19,0,0,0,2.17,2.2l10.63.09h0A2.15,2.15,0,0,0,73,159.42v-.91c7.82-1.51,15.65-3,23.42-4.72q24.44-5.55,48.78-11.52c11.28-2.78,22.47-5.94,33.73-8.84,2.1-.54,4.31-.63,6.45-1,3.12-.58,6.24-1.17,9.32-1.91,2.12-.51,4.15-1.39,6.27-1.91q10.55-2.58,21.11-5c2-.46,4-.84,5.94-1.2,6.14-1.09,12.33-2,18.41-3.3,7.09-1.56,14.06-3.6,21.12-5.28,3.94-1,8-1.5,11.93-2.4,8.21-1.89,16.33-4.27,24.6-5.76,12-2.17,23.39-6.6,35.65-8.19,14.46-1.86,28.61-6.19,42.86-9.59a2.94,2.94,0,0,0,1.16-.63A2.29,2.29,0,0,0,383.72,83.6ZM71.17,159.73a.48.48,0,0,1-.32.13h0l-10.64-.09a.49.49,0,0,1-.48-.48l.9-131.94c-.07-1.38-.14-2.75-.2-4.17-.18-3.74-.35-7.27-.69-10.86-.21-2.2-.19-3.64.58-4.48.47-.52,2.71-1,6.67-1h.28l4.58,0a.38.38,0,0,1,.34.34L71.3,159.41A.48.48,0,0,1,71.17,159.73Zm49-93.71h-.06a.32.32,0,0,1,.06.16l0,8.26c0,.55-.43,1.09-.85,1.07l-7.15-.22c-.48,0-.84-.59-.84-1.15V72a1,1,0,0,0-.17-.57l-1-1.42a.63.63,0,0,0-.42-.27l-5.83-.27c-.12,0-.24.08-.42.23l-1,1.36a.88.88,0,0,0-.24.57L102,101.23c.06.16.06.41.24.57l.84,1.12,7-.33.85-1.17a1.1,1.1,0,0,0,.19-.57V98.43c0-.57.37-1.15.85-1.16l7.16-.23c.42,0,.84.52.83,1.07l0,8.89a2.5,2.5,0,0,1-.67,1.46l-3.39,4.68a2.33,2.33,0,0,1-1.57,1L98.72,115.4a1.9,1.9,0,0,1-1.56-.8l-3.34-4.48a4.18,4.18,0,0,1-.59-2.16l.25-43.51a3.85,3.85,0,0,1,.61-2.16l3.4-4.48a2,2,0,0,1,1.56-.8l15.57,1.25a2.3,2.3,0,0,1,1.56,1l3.34,4.67A3.53,3.53,0,0,1,120.17,66Zm35.52,44.85-6.86.55c-.48,0-.9-.43-1.08-.92l-1.41-5.77-12.09.72-1.48,6.22c-.18.54-.61,1.1-1.09,1.14l-6.86.56a.87.87,0,0,1-.89-1l12.2-51.16v-.08c.25-.65.43-1,.85-1l2.64.21,1.87.15,2.64.21c.42,0,.66.42.84,1.09v.07c3.87,16.37,7.75,32.4,11.62,48C156.71,110.29,156.17,110.83,155.69,110.87Zm39-3.16-7.1.58a.81.81,0,0,1-.9-.82l-.14-16L181.8,108a1.49,1.49,0,0,1-1.09,1l-4.81.39a1.33,1.33,0,0,1-1.14-.83l-4.47-16.74-.4,17a1,1,0,0,1-.85,1l-7.16.58a.83.83,0,0,1-.83-.9l1.89-46.09v-.21a.91.91,0,0,1,.36-.59c.06,0,.06,0,.12-.06a.21.21,0,0,0,.18-.05l7.64.6c.48,0,.72.39.89.94l5.27,25.67.63,5.48.51-5.49L185,65c.12-.56.42-.79.9-.75l7.64.6a.24.24,0,0,0,.18.08.06.06,0,0,0,.06.06,1.07,1.07,0,0,1,.35.59v.12a.06.06,0,0,1,.06.07l1.33,41A.93.93,0,0,1,194.67,107.71Zm32.66-21.62-.06,0h.06a1.88,1.88,0,0,1-.67,1.41l-3.39,3.15a2.15,2.15,0,0,1-1.57.58l-11.12.24-.08,14a1,1,0,0,1-.91.89l-7.1.57a.78.78,0,0,1-.84-.77l.24-40.15a.74.74,0,0,1,.84-.77l19.12,1.54a2.2,2.2,0,0,1,1.56.67l3.34,3.35a1.94,1.94,0,0,1,.66,1.44Zm32.21,13.26-3.39,2.86a2.7,2.7,0,0,1-1.56.65L239,104.07a2.1,2.1,0,0,1-1.57-.39L234.09,101a1.62,1.62,0,0,1-.65-1.32h.06c0-.06-.06,0-.06-.1l.18-31a.75.75,0,0,1,.85-.67l7.15.57a.84.84,0,0,1,.84.78l-.16,26.1a.73.73,0,0,0,.18.34l.84.67,7-.33.84-.72c.18-.15.19-.3.25-.35l.14-25c0-.39.37-.65.85-.61l7.09.56a.82.82,0,0,1,.84.72l-.16,27.45A1.44,1.44,0,0,1,259.54,99.35Zm34.29-23,0,4c0,.31-.42.52-.9.51l-7.1-.22c-.48,0-.84-.27-.83-.6V78l-7.46-.35a.63.63,0,0,0-.42.11l-1,.64c-.25.16-.25.33-.25.33l0,3.47.06,0s-.06.17.18.34l.84.61,11.24.19a2.56,2.56,0,0,1,1.57.46l3.35,2.22c.72.46.66,1,.66,1l-.06,9.16s.06.54-.67,1.05l-3.38,2.44a3.11,3.11,0,0,1-1.56.56l-15.59,1.26a2.55,2.55,0,0,1-1.56-.36l-3.35-2.23a1.18,1.18,0,0,1-.6-1.13s-.06,0-.06-.08l0-4.35c0-.36.42-.64.91-.66l7.09-.24c.48,0,.84.23.84.57v1.93l7.58-.36c.12,0,.18,0,.3-.14l1-.69a.51.51,0,0,0,.18-.34l0-3a.47.47,0,0,0-.18-.32l-1-.63a.48.48,0,0,0-.3-.12l-10.83.19a2.62,2.62,0,0,1-1.56-.46l-3.35-2.45a1.22,1.22,0,0,1-.59-1.16H267l.06-10.62h.06a1.17,1.17,0,0,1,.61-1.12l3.38-2.24a2.26,2.26,0,0,1,1.56-.36l15.57,1.25a2.71,2.71,0,0,1,1.56.56l3.35,2.43c.72.51.66,1,.66,1h-.06Z"/><polygon class="e06da68c-c7e8-4d1a-9b50-892afece195f" points="136.72 95.21 143.99 95 140.47 79.94 136.72 95.21"/></svg>