<?xml version="1.0" encoding="UTF-8"?><svg id="Layer_1" xmlns="http://www.w3.org/2000/svg" xmlns:xlink="http://www.w3.org/1999/xlink" viewBox="0 0 187.69 40.8"><defs><style>.cls-1{fill:url(#linear-gradient);}.cls-1,.cls-2,.cls-3,.cls-4,.cls-5,.cls-6,.cls-7{stroke-width:0px;}.cls-8{clip-path:url(#clipPath-2);}.cls-2{fill:#f7931e;}.cls-3{fill:none;}.cls-9{clip-path:url(#clipPath-1);}.cls-10{clip-path:url(#clipPath-4);}.cls-4{fill:url(#linear-gradient-2);}.cls-5{fill:url(#linear-gradient-3);}.cls-11{clip-path:url(#clipPath);}.cls-6{fill:#404041;}.cls-12{clip-path:url(#clipPath-3);}.cls-7{fill:url(#linear-gradient-4);}</style><clipPath id="clipPath"><rect class="cls-3" width="187.69" height="40.8"/></clipPath><clipPath id="clipPath-1"><path class="cls-3" d="M6.37,1.2s1.05,6.45,6.14,7.44l39.1-.02-2.95-7.42H6.37Z"/></clipPath><linearGradient id="linear-gradient" x1="0" y1="40.8" x2="1" y2="40.8" gradientTransform="translate(6.37 1850.62) scale(45.24 -45.24)" gradientUnits="userSpaceOnUse"><stop offset="0" stop-color="#cc1e55"/><stop offset=".13" stop-color="#d4344a"/><stop offset=".4" stop-color="#e35d37"/><stop offset=".64" stop-color="#ee7a29"/><stop offset=".85" stop-color="#f48c20"/><stop offset="1" stop-color="#f7931e"/></linearGradient><clipPath id="clipPath-2"><path class="cls-3" d="M23.98,24.02s.53,4.96,5.62,6.94h19.2c-.13,0-.26-.01-.39-.02-.03,0-.05,0-.08,0-.4-.03-.79-.08-1.18-.15,0,0-.02,0-.03,0-.12-.02-.25-.05-.37-.08-.02,0-.04,0-.06-.01-.38-.09-.75-.19-1.11-.31-.01,0-.03-.01-.05-.02-.12-.04-.24-.08-.35-.13-.01,0-.03-.01-.04-.02-.35-.14-.7-.29-1.04-.46-.02,0-.04-.02-.06-.03-.11-.06-.22-.11-.33-.17,0,0,0,0-.01,0-.33-.19-.66-.39-.97-.61-.02-.01-.04-.03-.06-.04-.41-.3-.81-.62-1.18-.96l-.04-.04c-.28-.26-.54-.54-.78-.82,0,0,0-.01-.01-.02-.08-.09-.16-.19-.24-.29-.01-.01-.02-.02-.03-.04-.24-.3-.46-.6-.66-.92,0-.01-.01-.02-.02-.03-.07-.11-.13-.21-.2-.32,0,0,0-.01-.01-.02-.19-.33-.37-.67-.53-1.02,0-.02-.01-.03-.02-.05-.05-.11-.1-.23-.15-.35h-14.82Z"/></clipPath><linearGradient id="linear-gradient-2" x1="0" y1="40.8" x2="1" y2="40.8" gradientTransform="translate(23.98 1040.4) scale(24.83 -24.83)" gradientUnits="userSpaceOnUse"><stop offset="0" stop-color="#cc1e55"/><stop offset="0" stop-color="#cc1f54"/><stop offset=".14" stop-color="#d94243"/><stop offset=".27" stop-color="#e45f36"/><stop offset=".42" stop-color="#ec762b"/><stop offset=".58" stop-color="#f28623"/><stop offset=".76" stop-color="#f5901f"/><stop offset="1" stop-color="#f7931e"/></linearGradient><clipPath id="clipPath-3"><path class="cls-3" d="M1.1,8.62s1.04,6.47,6.14,7.46h31.4c1.55-4.31,5.71-7.39,10.6-7.39.02,0,.05,0,.07,0,.31-.04.69-.06,1.23-.06H1.1Z"/></clipPath><linearGradient id="linear-gradient-3" x1="0" y1="40.8" x2="1" y2="40.8" gradientTransform="translate(1.1 2029.38) scale(49.43 -49.43)" gradientUnits="userSpaceOnUse"><stop offset="0" stop-color="#cc1e55"/><stop offset=".35" stop-color="#df523c"/><stop offset=".7" stop-color="#f08126"/><stop offset=".87" stop-color="#f7931e"/><stop offset="1" stop-color="#f7931e"/></linearGradient><clipPath id="clipPath-4"><path class="cls-3" d="M12.54,16.08s1.04,6.45,6.14,7.94h20.13c-.53-1.29-.82-2.71-.82-4.19,0-1.32.23-2.58.65-3.75H12.54Z"/></clipPath><linearGradient id="linear-gradient-4" x1="0" y1="40.8" x2="1" y2="40.8" gradientTransform="translate(12.54 1091.73) scale(26.27 -26.27)" gradientUnits="userSpaceOnUse"><stop offset="0" stop-color="#cc1e55"/><stop offset="1" stop-color="#f7931e"/></linearGradient></defs><g class="cls-11"><path class="cls-6" d="M82.45,11.53c.86,0,1.67.16,2.43.49.76.32,1.42.77,2,1.35l-1.5,1.48c-.81-.82-1.78-1.23-2.94-1.23s-2.13.41-2.96,1.23c-.81.82-1.21,1.8-1.21,2.94s.4,2.13,1.21,2.95c.83.81,1.81,1.21,2.96,1.21.62,0,1.2-.12,1.74-.37.53-.25,1-.59,1.4-1.04v-1.71h-3.13v-2.07h5.22v4.47c-.29.42-.62.81-1,1.15-.38.35-.79.65-1.23.89-.44.25-.92.44-1.42.57-.5.13-1.03.2-1.57.2-1.73,0-3.2-.61-4.42-1.84-1.23-1.21-1.84-2.68-1.84-4.41s.61-3.19,1.84-4.41c1.21-1.23,2.68-1.84,4.42-1.84"/><path class="cls-6" d="M99.3,24.04l-2.42-4.16h-3.53v4.16h-2.07v-12.5h6.25c1.14,0,2.12.41,2.94,1.22.82.82,1.22,1.8,1.22,2.94,0,.86-.25,1.65-.74,2.36-.48.7-1.09,1.2-1.84,1.5l2.58,4.49h-2.4ZM97.53,13.62h-4.18v4.14l4.18.02c.56,0,1.05-.2,1.46-.61.41-.41.61-.9.61-1.48s-.21-1.05-.61-1.46c-.41-.41-.9-.61-1.46-.61"/><path class="cls-6" d="M113.5,21.95h-5.75l-1.06,2.09h-2.32l6.25-12.5,6.25,12.5h-2.32l-1.05-2.09ZM108.78,19.87h3.68l-1.84-3.68-1.84,3.68Z"/><path class="cls-6" d="M120,11.53h4.16c.85,0,1.66.17,2.41.5.76.33,1.42.78,1.99,1.35.57.57,1.02,1.23,1.35,1.99.33.76.5,1.56.5,2.42s-.16,1.66-.5,2.41c-.33.76-.78,1.42-1.34,1.99-.56.57-1.23,1.02-1.99,1.35-.76.33-1.57.49-2.42.49h-4.16v-12.5ZM124.16,21.95c.58,0,1.12-.11,1.62-.32.51-.22.95-.52,1.33-.9.38-.39.68-.83.89-1.33.22-.5.32-1.04.32-1.6s-.11-1.1-.32-1.6c-.22-.5-.52-.95-.9-1.33-.39-.38-.83-.68-1.33-.9-.5-.22-1.04-.32-1.6-.32h-2.09v8.32h2.09Z"/><polygon class="cls-6" points="142.34 11.53 142.34 13.62 136.09 13.62 136.09 16.76 142.34 16.76 142.34 18.83 136.09 18.83 136.09 21.95 142.34 21.95 142.34 24.04 134.02 24.04 134.02 11.53 142.34 11.53"/><path class="cls-6" d="M152.22,11.53c.86,0,1.67.16,2.42.49.75.32,1.41.77,1.99,1.35l-1.48,1.48c-.82-.82-1.8-1.23-2.94-1.23-.58,0-1.12.11-1.62.32-.51.22-.95.51-1.33.89-.38.38-.68.82-.9,1.32-.22.5-.33,1.05-.33,1.62s.11,1.12.33,1.62c.22.5.52.95.89,1.32.37.38.81.68,1.32.89.51.22,1.05.32,1.63.32,1.13,0,2.11-.4,2.94-1.21l1.48,1.46c-.58.58-1.24,1.03-1.99,1.35-.75.32-1.56.49-2.42.49s-1.68-.16-2.43-.49c-.76-.33-1.42-.78-1.99-1.34-.57-.56-1.02-1.23-1.35-1.98-.33-.76-.49-1.57-.49-2.43s.16-1.64.49-2.41c.33-.76.78-1.43,1.35-2,.57-.57,1.24-1.02,1.99-1.35.76-.33,1.57-.5,2.43-.5"/><path class="cls-6" d="M167.99,21.95h-5.75l-1.06,2.09h-2.32l6.25-12.5,6.25,12.5h-2.32l-1.04-2.09ZM163.27,19.87h3.67l-1.84-3.68-1.84,3.68Z"/><polygon class="cls-6" points="176.09 16.56 176.09 24.04 174.02 24.04 174.02 11.53 180.27 17.78 186.54 11.53 186.54 24.04 184.44 24.04 184.44 16.56 180.27 20.74 176.09 16.56"/><path class="cls-2" d="M68.19,17.66h0s-.06-.58-.06-.58h-21.4v7.94h12.46c-1.88,3.55-5.64,5.96-9.96,5.96-6.22,0-11.25-4.99-11.25-11.14s5.04-11.14,11.25-11.14c4.1,0,7.68,2.17,9.65,5.41h8.7c-.62-2.45-2.54-5.12-2.8-5.49-.26-.36-4.52-6.88-15.51-7.41H6.37s1.05,6.45,6.14,7.44H1.1s1.05,6.45,6.14,7.44h5.31s1.04,6.45,6.14,7.94h5.3s.53,4.96,5.62,6.94h3.72c3.39,4.46,9.05,7.88,15.7,7.88,9.97,0,19.2-7.28,19.2-19.34,0-.69,0-1.35-.04-1.84"/></g><g class="cls-9"><rect class="cls-1" x="6.37" y="1.2" width="45.23" height="7.44"/></g><g class="cls-8"><rect class="cls-4" x="23.98" y="24.02" width="24.83" height="6.94"/></g><g class="cls-12"><rect class="cls-5" x="1.1" y="8.62" width="49.43" height="7.46"/></g><g class="cls-10"><rect class="cls-7" x="12.54" y="16.08" width="26.26" height="7.94"/></g></svg>