<svg id="Layer_1" data-name="Layer 1" xmlns="http://www.w3.org/2000/svg" viewBox="0 0 180 44.43"><defs><style>.cls-1{fill:#5a58eb;}.cls-2{fill:#05da98;}.cls-3{fill:#0f233f;}</style></defs><path class="cls-1" d="M148.83,56.57,132.5,28.29a11.82,11.82,0,0,0-4.33,16.14l16.34,28.28A11.81,11.81,0,0,0,148.83,56.57Z" transform="translate(-113.5 -28.29)"/><path class="cls-2" d="M125.61,47.35,117,56a11.81,11.81,0,0,0,0,16.7h0l8.65-8.65A11.82,11.82,0,0,0,125.61,47.35Z" transform="translate(-113.5 -28.29)"/><path class="cls-3" d="M181.56,63.52h-4.17L175,56.79h-9.55L163,63.52H158.9l9.3-26h4ZM173.7,53.07l-3.47-9.75-3.47,9.75ZM194,44.62l-.78,3.91h-1.34a4,4,0,0,0-1.16.18,6.65,6.65,0,0,0-1.13.49,5.3,5.3,0,0,0-1,.69,3.08,3.08,0,0,0-.65.83v12.8H184V45.18h3.6v2.64q2.91-3.19,5.77-3.2Zm11.2,19.27a7.33,7.33,0,0,1-2.83-.59,6.65,6.65,0,0,1-2.42-1.64v1.86h-3.72V35.62H200V46.78a6.8,6.8,0,0,1,5.21-2,8.08,8.08,0,0,1,3.56.76,7.91,7.91,0,0,1,2.67,2.08,9.56,9.56,0,0,1,1.7,3.05,11.43,11.43,0,0,1,.59,3.67,10.93,10.93,0,0,1-.63,3.72,9.1,9.1,0,0,1-1.77,3,8.25,8.25,0,0,1-2.71,2A7.93,7.93,0,0,1,205.15,63.89Zm-.34-15.81a4.62,4.62,0,0,0-3.65,1.64,6.91,6.91,0,0,0-1.41,4.65A6.84,6.84,0,0,0,201.16,59a4.63,4.63,0,0,0,3.65,1.62,4.45,4.45,0,0,0,2.08-.47,4.52,4.52,0,0,0,1.59-1.3,6.3,6.3,0,0,0,1-2,8.33,8.33,0,0,0,.35-2.49,8.64,8.64,0,0,0-.35-2.55,6.1,6.1,0,0,0-1-2,4.81,4.81,0,0,0-1.59-1.28A4.58,4.58,0,0,0,204.81,48.08Zm20.35,15.81a9.49,9.49,0,0,1-3.77-.72,8.35,8.35,0,0,1-2.89-2,9.13,9.13,0,0,1-1.84-3,10.79,10.79,0,0,1-.65-3.78,11,11,0,0,1,.63-3.76,8.92,8.92,0,0,1,1.82-3,8.67,8.67,0,0,1,2.89-2,10.2,10.2,0,0,1,7.63,0,8.83,8.83,0,0,1,2.9,2.05,9,9,0,0,1,1.84,3,11.42,11.42,0,0,1,0,7.48,8.83,8.83,0,0,1-1.82,3,8.66,8.66,0,0,1-2.91,2A9.41,9.41,0,0,1,225.16,63.89Zm3.91-14.13a4.84,4.84,0,0,0-3.91-1.68,4.74,4.74,0,0,0-3.9,1.68,7,7,0,0,0-1.38,4.61A7,7,0,0,0,221.24,59a4.75,4.75,0,0,0,3.92,1.66,4.85,4.85,0,0,0,4-1.67,7.06,7.06,0,0,0,1.37-4.58A7,7,0,0,0,229.07,49.76Zm18.64-5.14-.78,3.91h-1.34a4,4,0,0,0-1.16.18,6.65,6.65,0,0,0-1.13.49,5.3,5.3,0,0,0-1,.69,3.08,3.08,0,0,0-.65.83v12.8h-3.94V45.18h3.61v2.64q2.9-3.19,5.76-3.2Zm23.63,18.9H267l-7.11-10.27-6.55,10.27H249l8.89-13-8.74-13.06h4.57l6.48,9.82,6.62-9.82h4.32l-9.05,12.57Zm22.16,0h-4.2l-5.66-10h-5.27v10h-4v-26h8.82a10.86,10.86,0,0,1,6.62,1.75c1.56,1.16,2.35,3.11,2.35,5.84a7.87,7.87,0,0,1-4.67,7.4ZM282.74,40.75h-4.37v9h4.93a5.06,5.06,0,0,0,3.44-1.11A4.41,4.41,0,0,0,288,45.22Q288,40.75,282.74,40.75Z" transform="translate(-113.5 -28.29)"/></svg>