<?xml version="1.0" encoding="UTF-8" standalone="no"?>
<svg
   viewBox="0 0 293.82414 293.82417"
   height="293.82416"
   width="293.82416"
   xml:space="preserve"
   id="svg833"
   version="1.1"
   xmlns="http://www.w3.org/2000/svg"
   xmlns:svg="http://www.w3.org/2000/svg"
   xmlns:rdf="http://www.w3.org/1999/02/22-rdf-syntax-ns#"
   xmlns:cc="http://creativecommons.org/ns#"
   xmlns:dc="http://purl.org/dc/elements/1.1/"><metadata
     id="metadata839"><rdf:RDF><cc:Work
         rdf:about=""><dc:format>image/svg+xml</dc:format><dc:type
           rdf:resource="http://purl.org/dc/dcmitype/StillImage" /></cc:Work></rdf:RDF></metadata><defs
     id="defs837" /><g
     id="layer2"
     transform="translate(-6.8119812,-0.78392029)"><circle
       style="fill:#ffffff;fill-opacity:1;stroke:none"
       id="path1"
       cx="153.72406"
       cy="147.696"
       r="146.91208" /></g><g
     style="display:inline;mix-blend-mode:normal"
     transform="matrix(0.96209484,0,0,-0.96209484,-238.85813,814.44234)"
     id="g841"><g
       transform="scale(0.1)"
       id="g843"><g
         transform="matrix(10,0,0,10,-441.14842,0)"
         id="g2069" /><path
         id="path2083"
         style="fill:#9e152c;fill-opacity:1;fill-rule:nonzero;stroke:none"
         d="m 4911.31,6011.58 c -52.53,-64.49 -152.84,-98.85 -282.45,-100 -105.04,-0.93 -320.6,68.15 -404.76,203.63 -49.02,78.91 -81.55,188.69 -31.76,266.75 49.01,76.83 178.51,110.74 384.53,118.14 181.47,6.52 326.7,-47 349.63,-75.26 56.75,-69.92 46.8,-337.17 -15.19,-413.26 z m -1116.03,103.63 c -84.17,-135.48 -299.73,-204.56 -404.76,-203.63 -129.61,1.15 -229.93,35.51 -282.45,100 -61.99,76.09 -71.94,343.34 -15.19,413.26 22.93,28.26 168.16,81.78 349.63,75.26 206.01,-7.4 335.52,-41.31 384.53,-118.14 49.79,-78.06 17.26,-187.84 -31.76,-266.75 z m 1366.47,387.6 c -0.24,30.17 -26.66,54.28 -67.3,61.4 -35.63,6.25 -342.19,15.51 -501.58,14.38 -179.71,-1.36 -284.32,-26.33 -380.53,-54.45 -68.59,-20.04 -127.89,-37.36 -202.65,-41.58 -74.76,4.22 -134.06,21.54 -202.66,41.58 -96.2,28.12 -200.82,53.09 -380.52,54.45 -159.39,1.13 -465.95,-8.13 -501.58,-14.38 -40.65,-7.12 -67.06,-31.23 -67.3,-61.4 l -0.87,-109.53 c -0.06,-7.77 5.33,-14.58 13.05,-16.46 26.67,-6.53 56.91,-13.93 82.38,-210.23 28.7,-221.16 164.19,-334.21 402.71,-336.01 212.17,0 460.46,77.5 541.5,286.63 58.07,149.85 85.45,186.21 113.29,187.53 27.84,-1.32 55.22,-37.68 113.29,-187.53 81.03,-209.13 329.33,-286.63 541.5,-286.63 238.52,1.8 374.01,114.85 402.7,336.01 25.48,196.3 55.71,203.7 82.39,210.23 7.72,1.88 13.11,8.69 13.05,16.46 l -0.87,109.53" /><path
         id="path2085"
         style="fill:#251f1d;fill-opacity:1;fill-rule:nonzero;stroke:none"
         d="m 4429.89,7041.01 c -156.94,32.64 -491.28,231.65 -468.53,310.07 84.68,-134.69 284.61,-186.93 309.83,-185.34 l 26.63,4.55 c 137.48,6.43 283.09,-9.97 349.92,-76.79 60.65,-60.65 154.29,-270.01 150.76,-476.96 51.02,-1.66 95.52,-3.58 123.65,-5.41 40.83,142.8 71.45,302.84 36.66,411.38 0,0 -20.88,-55.66 -45.25,-67.22 2.8,61.73 16.83,266.55 61.72,272.16 -43.25,41.24 -89.78,30.86 -103.81,0 -14.03,36.47 -14.03,148.7 36.48,165.54 -50.51,50.5 -115.04,42.08 -134.68,19.64 -42.08,84.17 -137.48,297.4 -333.88,336.68 38.47,-63.32 61.73,-137.48 61.73,-176.76 -42.78,111.67 -184.26,237.9 -318.3,207.34 -173.13,-39.47 -400.92,12.46 -416.8,90.07 -28.06,-33.67 -14.09,-118.3 33.67,-148.71 -98.2,-8.41 -470.18,151.11 -493.26,324.77 -97.62,-138.17 -9.09,-441.57 103.26,-451.02 -37.29,-32.54 -142.88,17.08 -168.34,78.56 -58.29,-45.69 -59.57,-183.09 -8.42,-249.71 -70.95,21.37 -138.6,132.07 -110.55,179.77 -123.89,-73.12 -181.02,-367.71 -91.46,-533.29 55.9,-103.36 51.65,-319.68 77.42,-458.52 19.34,1.12 44.27,2.25 72.49,3.32 -22.96,271.43 58.09,547.24 247.55,575.66 178.16,26.72 365.48,-26.07 515.79,-44.98 -41.6,35.12 -67.91,76.33 -55.73,118.33 63.92,-107.49 273.66,-225.67 541.45,-223.13" /><path
         id="path2087"
         style="fill:#1c1b1b;fill-opacity:1;fill-rule:nonzero;stroke:none"
         d="m 3564.4,6313.61 c -22.05,0 -42.74,-5.78 -60.71,-15.83 21.64,-45.07 50.52,-104 50.52,-104 l -107.63,35.62 c -4.36,-12.7 -6.84,-26.27 -6.84,-40.45 0,-68.85 55.81,-124.67 124.66,-124.67 68.86,0 124.67,55.82 124.67,124.67 0,68.85 -55.81,124.66 -124.67,124.66" /><path
         id="path2089"
         style="fill:#1c1b1b;fill-opacity:1;fill-rule:nonzero;stroke:none"
         d="m 4407.63,6298.92 c -22.06,0 -42.74,-5.79 -60.72,-15.84 21.65,-45.07 50.53,-104 50.53,-104 l -107.64,35.62 c -4.36,-12.7 -6.84,-26.27 -6.84,-40.45 0,-68.85 55.82,-124.67 124.67,-124.67 68.85,0 124.66,55.82 124.66,124.67 0,68.85 -55.81,124.67 -124.66,124.67" /></g></g></svg>
