<?xml version="1.0" encoding="UTF-8" standalone="no"?>
<svg
   viewBox="0 0 307.54048 496.93273"
   height="496.93271"
   width="307.5405"
   xml:space="preserve"
   id="svg833"
   version="1.1"
   xmlns="http://www.w3.org/2000/svg"
   xmlns:svg="http://www.w3.org/2000/svg"
   xmlns:rdf="http://www.w3.org/1999/02/22-rdf-syntax-ns#"
   xmlns:cc="http://creativecommons.org/ns#"
   xmlns:dc="http://purl.org/dc/elements/1.1/"><metadata
     id="metadata839"><rdf:RDF><cc:Work
         rdf:about=""><dc:format>image/svg+xml</dc:format><dc:type
           rdf:resource="http://purl.org/dc/dcmitype/StillImage" /></cc:Work></rdf:RDF></metadata><defs
     id="defs837" /><g
     style="mix-blend-mode:normal"
     transform="matrix(1.3333333,0,0,-1.3333333,-380.80889,1072.8026)"
     id="g841"><g
       transform="scale(0.1)"
       id="g843"><g
         transform="matrix(10,0,0,10,-441.14842,0)"
         id="g2069"><path
           d="m 372.65484,-536.60071 h -13.45847 l -22.9885,-37.17445 v 37.17445 h -12.80373 v -54.16121 h 16.69577 l 19.7512,31.02721 v -31.02721 h 12.80373 z m 52.99723,0 h -39.17503 v -54.16121 h 39.17503 v 10.47578 h -25.28008 v 9.34817 h 23.46137 v 10.47577 h -23.46137 v 13.38572 h 25.28008 z m 42.08497,-37.57457 q 0,-2.03695 -0.8366,-3.49192 -0.83661,-1.45497 -2.87357,-2.29158 -1.41859,-0.58198 -3.31005,-0.69111 -1.89146,-0.14549 -4.40128,-0.14549 h -5.05602 v 14.58606 h 4.29216 q 3.34643,0 5.60163,-0.32737 2.2552,-0.32737 3.78292,-1.49134 1.45497,-1.1276 2.1097,-2.47345 0.69111,-1.38222 0.69111,-3.6738 z m 21.78816,37.57457 h -17.05951 l -14.76793,-19.86032 h -6.43824 v 19.86032 h -13.89495 v -54.16121 h 23.425 q 4.80139,0 8.25694,0.54561 3.45556,0.54562 6.47462,2.36433 3.05543,1.81871 4.83777,4.72865 1.81871,2.87356 1.81871,7.23847 0,6.00174 -2.80082,9.78466 -2.76444,3.78292 -7.92958,6.29274 z m 57.2894,-27.02604 q 0,7.56583 -3.45555,13.56758 -3.45555,5.96537 -8.72981,9.1663 -3.96479,2.4007 -8.69344,3.34643 -4.72865,0.94573 -11.20326,0.94573 h -19.09646 v -54.16121 h 19.64208 q 6.6201,0 11.4215,1.1276 4.8014,1.09123 8.07508,3.12818 5.60163,3.41918 8.80256,9.23906 3.2373,5.7835 3.2373,13.64033 z m -14.44056,-0.10913 q 0,-5.34701 -1.96421,-9.12992 -1.92783,-3.8193 -6.14724,-5.96538 -2.14608,-1.05485 -4.40128,-1.41859 -2.21883,-0.40012 -6.72923,-0.40012 h -3.5283 v 33.90077 h 3.5283 q 4.98326,0 7.31121,-0.43649 2.32795,-0.47286 4.54678,-1.67321 3.81929,-2.18245 5.60163,-5.81987 1.78234,-3.6738 1.78234,-9.05719 z"
           id="text2073"
           style="font-weight:800;font-size:74.4944px;font-family:OpenSans;-inkscape-font-specification:OpenSans-Extrabold;fill:#251f1d;stroke-width:0.877324"
           transform="scale(1.0209065,-0.97952164)"
           aria-label="NERD" /><path
           d="m 365.76299,-492.39974 q 0,6.99258 -5.94369,11.37883 -5.9119,4.35446 -16.08292,4.35446 -5.88012,0 -10.26637,-1.0171 -4.35446,-1.04889 -8.16859,-2.63811 v -11.34704 h 1.33494 q 3.78235,3.01952 8.45466,4.64053 4.70409,1.62101 9.02677,1.62101 1.11246,0 2.92417,-0.19071 1.81171,-0.19071 2.95595,-0.63569 1.39852,-0.57212 2.28848,-1.4303 0.92175,-0.85818 0.92175,-2.54275 0,-1.55744 -1.33495,-2.66989 -1.30316,-1.14424 -3.84591,-1.74815 -2.66989,-0.63569 -5.65763,-1.17602 -2.95595,-0.57212 -5.56227,-1.4303 -5.97547,-1.93885 -8.61358,-5.24443 -2.60632,-3.33736 -2.60632,-8.26395 0,-6.61116 5.9119,-10.77492 5.94369,-4.19554 15.25652,-4.19554 4.67231,0 9.21748,0.92175 4.57696,0.88996 7.91433,2.25669 v 10.90206 h -1.30317 q -2.86059,-2.28848 -7.02435,-3.81413 -4.13198,-1.55744 -8.45466,-1.55744 -1.52565,0 -3.0513,0.22249 -1.49387,0.19071 -2.89239,0.76283 -1.23959,0.47676 -2.12955,1.46208 -0.88997,0.95353 -0.88997,2.19313 0,1.87528 1.4303,2.89238 1.4303,0.98531 5.40335,1.81171 2.60633,0.54033 4.99016,1.04889 2.41561,0.50855 5.18086,1.39851 5.43514,1.77993 8.00967,4.86302 2.60633,3.0513 2.60633,7.9461 z m 47.42235,-17.51321 q 0,3.17844 -1.11245,6.22974 -1.11246,3.01952 -3.17844,5.08551 -2.82882,2.79703 -6.3251,4.22733 -3.46451,1.4303 -8.64537,1.4303 h -7.59647 v 15.41544 h -12.20522 v -47.327 h 20.08775 q 4.51339,0 7.59648,0.79461 3.11487,0.76282 5.49871,2.32026 2.86059,1.87528 4.35446,4.79945 1.52565,2.92417 1.52565,7.02436 z m -12.61841,0.28606 q 0,-2.00242 -1.08067,-3.43272 -1.08067,-1.46209 -2.51097,-2.03421 -1.90707,-0.76282 -3.71878,-0.82639 -1.81171,-0.0954 -4.83123,-0.0954 h -2.09777 v 14.17585 h 3.49628 q 3.11488,0 5.1173,-0.38141 2.0342,-0.38142 3.40093,-1.52566 1.17602,-1.0171 1.68457,-2.41561 0.54034,-1.4303 0.54034,-3.4645 z m 55.49561,32.10226 h -34.23183 v -47.327 h 34.23183 v 9.15391 h -22.09018 v 8.1686 h 20.50095 v 9.15391 h -20.50095 v 11.69667 h 22.09018 z m 31.62549,0.92175 q -5.27622,0 -9.75782,-1.55744 -4.44982,-1.55743 -7.66004,-4.64052 -3.21023,-3.08309 -4.99016,-7.69183 -1.74814,-4.60874 -1.74814,-10.64778 0,-5.62585 1.68457,-10.2028 1.68458,-4.57696 4.8948,-7.85076 3.08309,-3.14665 7.62826,-4.86301 4.57696,-1.71636 9.98031,-1.71636 2.98774,0 5.37157,0.34963 2.41562,0.31784 4.44982,0.85818 2.12956,0.6039 3.84591,1.36673 1.74815,0.73104 3.05131,1.36673 v 11.47417 h -1.39852 q -0.88996,-0.76282 -2.25669,-1.81171 -1.33494,-1.04888 -3.0513,-2.06599 -1.74815,-1.0171 -3.78235,-1.71635 -2.0342,-0.69926 -4.35447,-0.69926 -2.57453,0 -4.8948,0.82639 -2.32026,0.79461 -4.29089,2.66989 -1.87529,1.81172 -3.05131,4.79945 -1.14424,2.98774 -1.14424,7.24685 0,4.44982 1.23959,7.43756 1.27138,2.98773 3.17845,4.70409 1.93885,1.74814 4.32268,2.51097 2.38383,0.73104 4.70409,0.73104 2.22491,0 4.38625,-0.66747 2.19313,-0.66747 4.03662,-1.81171 1.55744,-0.92175 2.89239,-1.97064 1.33494,-1.04888 2.19312,-1.81171 h 1.27138 v 11.31525 q -1.77993,0.79462 -3.40093,1.49387 -1.62101,0.69926 -3.40094,1.20781 -2.32026,0.66747 -4.35446,1.0171 -2.03421,0.34963 -5.59406,0.34963 z m 63.60064,-15.79686 q 0,6.99258 -5.94369,11.37883 -5.9119,4.35446 -16.08292,4.35446 -5.88012,0 -10.26637,-1.0171 -4.35446,-1.04889 -8.16859,-2.63811 v -11.34704 h 1.33494 q 3.78235,3.01952 8.45466,4.64053 4.70409,1.62101 9.02677,1.62101 1.11246,0 2.92417,-0.19071 1.81171,-0.19071 2.95595,-0.63569 1.39852,-0.57212 2.28848,-1.4303 0.92175,-0.85818 0.92175,-2.54275 0,-1.55744 -1.33495,-2.66989 -1.30316,-1.14424 -3.84591,-1.74815 -2.66989,-0.63569 -5.65763,-1.17602 -2.95595,-0.57212 -5.56227,-1.4303 -5.97547,-1.93885 -8.61358,-5.24443 -2.60632,-3.33736 -2.60632,-8.26395 0,-6.61116 5.9119,-10.77492 5.94369,-4.19554 15.25652,-4.19554 4.67231,0 9.21748,0.92175 4.57696,0.88996 7.91433,2.25669 v 10.90206 h -1.30317 q -2.86059,-2.28848 -7.02435,-3.81413 -4.13198,-1.55744 -8.45466,-1.55744 -1.52565,0 -3.0513,0.22249 -1.49387,0.19071 -2.89239,0.76283 -1.23959,0.47676 -2.12955,1.46208 -0.88997,0.95353 -0.88997,2.19313 0,1.87528 1.4303,2.89238 1.4303,0.98531 5.40335,1.81171 2.60633,0.54033 4.99016,1.04889 2.41561,0.50855 5.18086,1.39851 5.43514,1.77993 8.00967,4.86302 2.60633,3.0513 2.60633,7.9461 z"
           id="text2077"
           style="font-weight:800;font-size:65.0945px;font-family:OpenSans;-inkscape-font-specification:OpenSans-Extrabold;fill:#251f1d;stroke-width:1.29814"
           transform="scale(1.0135877,-0.98659446)"
           aria-label="SPECS" /><path
           style="font-size:44.4698px;font-family:'open sans';-inkscape-font-specification:'open sans';fill:#251f1d;stroke-width:0.885853"
           d="m 347.10457,-448.73754 q -1.19425,0.52113 -2.17137,0.97712 -0.95541,0.45599 -2.5188,0.9554 -1.32454,0.41256 -2.88793,0.69484 -1.54168,0.304 -3.40906,0.304 -3.51763,0 -6.40557,-0.97712 -2.86621,-0.99884 -4.99416,-3.10507 -2.08452,-2.06281 -3.25707,-5.23302 -1.17254,-3.19193 -1.17254,-7.4044 0,-3.99533 1.12911,-7.14383 1.12912,-3.14849 3.25707,-5.31987 2.06281,-2.10624 4.97245,-3.21364 2.93136,-1.1074 6.49242,-1.1074 2.60565,0 5.18959,0.6297 2.60565,0.6297 5.77586,2.2148 v 5.10274 h -0.3257 q -2.6708,-2.23652 -5.29816,-3.25707 -2.62737,-1.02054 -5.62387,-1.02054 -2.45365,0 -4.42961,0.80341 -1.95424,0.78169 -3.49591,2.45365 -1.49825,1.62854 -2.34509,4.12562 -0.82513,2.47537 -0.82513,5.73243 0,3.40907 0.91198,5.86272 0.9337,2.45366 2.38852,3.99533 1.51996,1.60682 3.53934,2.38852 2.0411,0.75998 4.29933,0.75998 3.10507,0 5.81929,-1.06397 2.71422,-1.06398 5.08102,-3.19193 h 0.30399 z m 32.83122,2.34508 h -5.58044 l -10.81345,-12.85455 h -6.05815 v 12.85455 h -4.29932 v -32.3318 h 9.05464 q 2.93136,0 4.8856,0.39085 1.95424,0.36913 3.51763,1.34625 1.75881,1.10741 2.73593,2.80108 0.99884,1.67196 0.99884,4.2559 0,3.49592 -1.75882,5.86272 -1.75881,2.34508 -4.84217,3.53934 z m -10.05347,-23.23373 q 0,-1.38968 -0.49942,-2.45365 -0.4777,-1.08569 -1.60682,-1.82396 -0.93369,-0.6297 -2.2148,-0.86855 -1.28112,-0.26057 -3.01822,-0.26057 h -5.05931 v 12.20314 h 4.34276 q 2.04109,0 3.56106,-0.34742 1.51996,-0.36913 2.58394,-1.34625 0.97711,-0.91198 1.4331,-2.08453 0.47771,-1.19425 0.47771,-3.01821 z m 35.52372,23.23373 h -21.30121 v -32.3318 h 21.30121 v 3.82163 h -17.00188 v 8.85921 h 17.00188 v 3.82163 h -17.00188 v 12.00771 h 17.00188 z m 32.31009,0 h -4.58161 l -3.17021,-9.01121 h -13.98367 l -3.17021,9.01121 h -4.36446 l 11.76886,-32.3318 h 5.73243 z m -9.07636,-12.70255 -5.66729,-15.87277 -5.68901,15.87277 z m 34.43804,-15.80762 h -11.55173 v 28.51017 h -4.29932 v -28.51017 h -11.55173 v -3.82163 h 27.40278 z m 15.74249,28.51017 h -12.76769 v -3.30049 h 4.23418 v -25.73082 h -4.23418 v -3.30049 h 12.76769 v 3.30049 h -4.23418 v 25.73082 h 4.23418 z m 32.80949,-32.3318 -11.76886,32.3318 h -5.73243 l -11.76887,-32.3318 h 4.60332 l 10.14033,28.44504 10.14033,-28.44504 z m 26.20854,32.3318 h -21.30121 v -32.3318 h 21.30121 v 3.82163 h -17.00188 v 8.85921 h 17.00188 v 3.82163 h -17.00188 v 12.00771 h 17.00188 z"
           id="text2081"
           transform="scale(1.0321918,-0.96881219)"
           aria-label="CREATIVE" /></g><path
         id="path2083"
         style="fill:#9e152c;fill-opacity:1;fill-rule:nonzero;stroke:none"
         d="m 4911.31,6011.58 c -52.53,-64.49 -152.84,-98.85 -282.45,-100 -105.04,-0.93 -320.6,68.15 -404.76,203.63 -49.02,78.91 -81.55,188.69 -31.76,266.75 49.01,76.83 178.51,110.74 384.53,118.14 181.47,6.52 326.7,-47 349.63,-75.26 56.75,-69.92 46.8,-337.17 -15.19,-413.26 z m -1116.03,103.63 c -84.17,-135.48 -299.73,-204.56 -404.76,-203.63 -129.61,1.15 -229.93,35.51 -282.45,100 -61.99,76.09 -71.94,343.34 -15.19,413.26 22.93,28.26 168.16,81.78 349.63,75.26 206.01,-7.4 335.52,-41.31 384.53,-118.14 49.79,-78.06 17.26,-187.84 -31.76,-266.75 z m 1366.47,387.6 c -0.24,30.17 -26.66,54.28 -67.3,61.4 -35.63,6.25 -342.19,15.51 -501.58,14.38 -179.71,-1.36 -284.32,-26.33 -380.53,-54.45 -68.59,-20.04 -127.89,-37.36 -202.65,-41.58 -74.76,4.22 -134.06,21.54 -202.66,41.58 -96.2,28.12 -200.82,53.09 -380.52,54.45 -159.39,1.13 -465.95,-8.13 -501.58,-14.38 -40.65,-7.12 -67.06,-31.23 -67.3,-61.4 l -0.87,-109.53 c -0.06,-7.77 5.33,-14.58 13.05,-16.46 26.67,-6.53 56.91,-13.93 82.38,-210.23 28.7,-221.16 164.19,-334.21 402.71,-336.01 212.17,0 460.46,77.5 541.5,286.63 58.07,149.85 85.45,186.21 113.29,187.53 27.84,-1.32 55.22,-37.68 113.29,-187.53 81.03,-209.13 329.33,-286.63 541.5,-286.63 238.52,1.8 374.01,114.85 402.7,336.01 25.48,196.3 55.71,203.7 82.39,210.23 7.72,1.88 13.11,8.69 13.05,16.46 l -0.87,109.53" /><path
         id="path2085"
         style="fill:#251f1d;fill-opacity:1;fill-rule:nonzero;stroke:none"
         d="m 4429.89,7041.01 c -156.94,32.64 -491.28,231.65 -468.53,310.07 84.68,-134.69 284.61,-186.93 309.83,-185.34 l 26.63,4.55 c 137.48,6.43 283.09,-9.97 349.92,-76.79 60.65,-60.65 154.29,-270.01 150.76,-476.96 51.02,-1.66 95.52,-3.58 123.65,-5.41 40.83,142.8 71.45,302.84 36.66,411.38 0,0 -20.88,-55.66 -45.25,-67.22 2.8,61.73 16.83,266.55 61.72,272.16 -43.25,41.24 -89.78,30.86 -103.81,0 -14.03,36.47 -14.03,148.7 36.48,165.54 -50.51,50.5 -115.04,42.08 -134.68,19.64 -42.08,84.17 -137.48,297.4 -333.88,336.68 38.47,-63.32 61.73,-137.48 61.73,-176.76 -42.78,111.67 -184.26,237.9 -318.3,207.34 -173.13,-39.47 -400.92,12.46 -416.8,90.07 -28.06,-33.67 -14.09,-118.3 33.67,-148.71 -98.2,-8.41 -470.18,151.11 -493.26,324.77 -97.62,-138.17 -9.09,-441.57 103.26,-451.02 -37.29,-32.54 -142.88,17.08 -168.34,78.56 -58.29,-45.69 -59.57,-183.09 -8.42,-249.71 -70.95,21.37 -138.6,132.07 -110.55,179.77 -123.89,-73.12 -181.02,-367.71 -91.46,-533.29 55.9,-103.36 51.65,-319.68 77.42,-458.52 19.34,1.12 44.27,2.25 72.49,3.32 -22.96,271.43 58.09,547.24 247.55,575.66 178.16,26.72 365.48,-26.07 515.79,-44.98 -41.6,35.12 -67.91,76.33 -55.73,118.33 63.92,-107.49 273.66,-225.67 541.45,-223.13" /><path
         id="path2087"
         style="fill:#1c1b1b;fill-opacity:1;fill-rule:nonzero;stroke:none"
         d="m 3564.4,6313.61 c -22.05,0 -42.74,-5.78 -60.71,-15.83 21.64,-45.07 50.52,-104 50.52,-104 l -107.63,35.62 c -4.36,-12.7 -6.84,-26.27 -6.84,-40.45 0,-68.85 55.81,-124.67 124.66,-124.67 68.86,0 124.67,55.82 124.67,124.67 0,68.85 -55.81,124.66 -124.67,124.66" /><path
         id="path2089"
         style="fill:#1c1b1b;fill-opacity:1;fill-rule:nonzero;stroke:none"
         d="m 4407.63,6298.92 c -22.06,0 -42.74,-5.79 -60.72,-15.84 21.65,-45.07 50.53,-104 50.53,-104 l -107.64,35.62 c -4.36,-12.7 -6.84,-26.27 -6.84,-40.45 0,-68.85 55.82,-124.67 124.67,-124.67 68.85,0 124.66,55.82 124.66,124.67 0,68.85 -55.81,124.67 -124.66,124.67" /></g></g></svg>
