<?xml version="1.0" encoding="UTF-8" standalone="no"?>
<svg
   viewBox="0 0 841.2524 157.2481"
   height="157.24811"
   width="841.25244"
   xml:space="preserve"
   id="svg833"
   version="1.1"
   xmlns="http://www.w3.org/2000/svg"
   xmlns:svg="http://www.w3.org/2000/svg"
   xmlns:rdf="http://www.w3.org/1999/02/22-rdf-syntax-ns#"
   xmlns:cc="http://creativecommons.org/ns#"
   xmlns:dc="http://purl.org/dc/elements/1.1/"><metadata
     id="metadata839"><rdf:RDF><cc:Work
         rdf:about=""><dc:format>image/svg+xml</dc:format><dc:type
           rdf:resource="http://purl.org/dc/dcmitype/StillImage" /></cc:Work></rdf:RDF></metadata><defs
     id="defs837" /><g
     style="mix-blend-mode:normal"
     transform="matrix(1.3333333,0,0,-1.3333333,-329.87517,979.91803)"
     id="g841"><g
       transform="scale(0.1)"
       id="g843"><g
         transform="matrix(10,0,0,10,708.33143,1365.9833)"
         id="g2069"><path
           d="m 363.01546,518.79146 h -13.73984 l -23.46911,36.41317 V 518.79146 H 312.7351 v 53.05207 h 17.04482 l 20.16413,-30.39182 v 30.39182 h 13.07141 z m 54.10521,0 h -39.99404 v 53.05207 h 39.99404 v -10.26125 h -25.80859 v -9.15673 h 23.95186 V 542.1643 h -23.95186 v -13.1116 h 25.80859 z m 42.96482,36.8051 q 0,1.99524 -0.85409,3.42041 -0.8541,1.42518 -2.93364,2.24465 -1.44825,0.57007 -3.37925,0.67696 -1.93101,0.14251 -4.4933,0.14251 h -5.16172 v -14.28736 h 4.38189 q 3.41639,0 5.71874,0.32067 2.30235,0.32066 3.86201,1.4608 1.48539,1.10451 2.15381,2.42279 0.70555,1.35392 0.70555,3.59857 z m 22.24368,-36.8051 H 464.913 l -15.07667,19.45361 h -6.57284 v -19.45361 h -14.18545 v 53.05207 h 23.91474 q 4.90177,0 8.42956,-0.53443 3.5278,-0.53445 6.60998,-2.31592 3.11931,-1.78146 4.93891,-4.63181 1.85674,-2.81471 1.85674,-7.09024 0,-5.87883 -2.85938,-9.58428 -2.82223,-3.70546 -8.09536,-6.16388 z m 58.48712,26.47259 q 0,-7.4109 -3.52779,-13.28974 -3.5278,-5.84321 -8.91232,-8.97859 -4.04768,-2.35154 -8.87519,-3.2779 -4.82751,-0.92636 -11.43748,-0.92636 h -19.4957 v 53.05207 h 20.05272 q 6.75851,0 11.66029,-1.1045 4.90178,-1.06889 8.2439,-3.06412 5.71874,-3.34917 8.98659,-9.04986 3.30498,-5.66507 3.30498,-13.361 z m -14.74246,0.10689 q 0,5.23751 -2.00528,8.94296 -1.96813,3.74108 -6.27575,5.84322 -2.19095,1.03324 -4.4933,1.38954 -2.26522,0.39192 -6.86991,0.39192 h -3.60207 v -33.20654 h 3.60207 q 5.08744,0 7.46406,0.42756 2.37662,0.46317 4.64183,1.63894 3.89914,2.13776 5.71875,5.70069 1.8196,3.59857 1.8196,8.87171 z"
           id="text2073"
           style="font-weight:800;font-size:74.4944px;font-family:OpenSans;-inkscape-font-specification:OpenSans-Extrabold;fill:#251f1d;stroke-width:0.877324"
           aria-label="NERD" /><path
           d="m 603.12384,536.09139 q 0,-7.49159 -6.54208,-12.19086 -6.50708,-4.66521 -17.70208,-4.66521 -6.4721,0 -11.29994,1.08969 -4.79285,1.12374 -8.99096,2.82636 v 12.15681 h 1.46933 q 4.16314,-3.235 9.30583,-4.97169 5.17768,-1.73669 9.93556,-1.73669 1.22445,0 3.21856,0.20431 1.9941,0.20433 3.25353,0.68106 1.53933,0.61295 2.51888,1.53237 1.01454,0.91942 1.01454,2.72421 0,1.66858 -1.46933,2.86042 -1.43436,1.2259 -4.2331,1.8729 -2.93869,0.68106 -6.22723,1.25995 -3.25353,0.61295 -6.12224,1.53237 -6.57706,2.07721 -9.48076,5.61869 -2.86872,3.57552 -2.86872,8.85369 0,7.08295 6.50709,11.54384 6.54207,4.49495 16.79247,4.49495 5.14271,0 10.14546,-0.98752 5.03775,-0.95347 8.71111,-2.41774 v -11.68006 h -1.43436 q -3.14859,2.45179 -7.73154,4.08632 -4.54796,1.66858 -9.30584,1.66858 -1.67924,0 -3.35849,-0.23837 -1.64426,-0.20432 -3.18358,-0.81726 -1.36438,-0.51079 -2.34394,-1.56642 -0.97957,-1.02158 -0.97957,-2.34964 0,-2.00911 1.5743,-3.09879 1.57429,-1.05563 5.94733,-1.941 2.86872,-0.57889 5.49255,-1.12374 2.65881,-0.54484 5.70245,-1.49831 5.98232,-1.90695 8.81604,-5.21006 2.86873,-3.26906 2.86873,-8.51316 z m 52.19662,18.76301 q 0,-3.40527 -1.22445,-6.67432 -1.22446,-3.235 -3.49843,-5.44843 -3.11361,-2.99663 -6.96188,-4.52901 -3.81331,-1.53236 -9.51575,-1.53236 h -8.36125 v -16.51553 h -13.43399 v 50.7044 h 22.1101 q 4.96777,0 8.36125,-0.85132 3.42847,-0.81726 6.0523,-2.48585 3.14859,-2.0091 4.79285,-5.14195 1.67925,-3.13285 1.67925,-7.52563 z m -13.88878,-0.30648 q 0,2.14532 -1.18946,3.67768 -1.18948,1.56643 -2.76377,2.17938 -2.09906,0.81726 -4.09317,0.88537 -1.99411,0.10219 -5.31762,0.10219 h -2.30896 v -15.18749 h 3.84827 q 3.42847,0 5.63249,0.40863 2.23899,0.40865 3.74332,1.63454 1.29441,1.08968 1.85416,2.58799 0.59474,1.53237 0.59474,3.71174 z m 61.08266,-34.39317 h -37.67813 v 50.7044 h 37.67813 v -9.80717 h -24.31412 v -8.75154 h 22.56489 v -9.80715 h -22.56489 v -12.53138 h 24.31412 z m 34.80941,-0.98753 q -5.80742,0 -10.7402,1.66858 -4.89781,1.66857 -8.43122,4.97168 -3.53342,3.30311 -5.49255,8.24075 -1.92413,4.93762 -1.92413,11.40763 0,6.02733 1.85417,10.9309 1.85417,4.90359 5.38758,8.41102 3.39348,3.37121 8.39624,5.21005 5.03775,1.83884 10.98508,1.83884 3.28853,0 5.91236,-0.37458 2.65881,-0.34052 4.89781,-0.91942 2.34395,-0.64699 4.2331,-1.46427 1.92414,-0.78321 3.3585,-1.46426 v -12.293 h -1.53932 q -0.97956,0.81727 -2.48388,1.94099 -1.46934,1.12374 -3.35849,2.21345 -1.92415,1.08967 -4.16314,1.83883 -2.23899,0.74916 -4.79286,0.74916 -2.83372,0 -5.38759,-0.88537 -2.55386,-0.85131 -4.72287,-2.86042 -2.06409,-1.94101 -3.3585,-5.14197 -1.25944,-3.20094 -1.25944,-7.764 0,-4.76736 1.36438,-7.96832 1.39938,-3.20095 3.49844,-5.03979 2.13404,-1.8729 4.75787,-2.69016 2.62383,-0.78321 5.17767,-0.78321 2.44891,0 4.82784,0.7151 2.41393,0.7151 4.44301,1.941 1.71424,0.98753 3.18359,2.11127 1.46933,1.12374 2.41391,1.941 h 1.39938 v -12.12274 q -1.95913,-0.85133 -3.74333,-1.60048 -1.7842,-0.74916 -3.74333,-1.294 -2.55384,-0.71511 -4.79284,-1.08968 -2.239,-0.37458 -6.15724,-0.37458 z m 70.00366,16.92417 q 0,-7.49159 -6.54207,-12.19086 -6.50709,-4.66521 -17.70208,-4.66521 -6.47211,0 -11.29994,1.08969 -4.79285,1.12374 -8.99097,2.82636 v 12.15681 h 1.46934 q 4.16314,-3.235 9.30583,-4.97169 5.17768,-1.73669 9.93555,-1.73669 1.22446,0 3.21857,0.20431 1.99409,0.20433 3.25353,0.68106 1.53932,0.61295 2.51888,1.53237 1.01454,0.91942 1.01454,2.72421 0,1.66858 -1.46934,2.86042 -1.43435,1.2259 -4.2331,1.8729 -2.93868,0.68106 -6.22722,1.25995 -3.25353,0.61295 -6.12225,1.53237 -6.57705,2.07721 -9.48076,5.61869 -2.86871,3.57552 -2.86871,8.85369 0,7.08295 6.50709,11.54384 6.54207,4.49495 16.79247,4.49495 5.1427,0 10.14545,-0.98752 5.03775,-0.95347 8.71111,-2.41774 v -11.68006 h -1.43437 q -3.14857,2.45179 -7.73152,4.08632 -4.54797,1.66858 -9.30584,1.66858 -1.67924,0 -3.35849,-0.23837 -1.64427,-0.20432 -3.18358,-0.81726 -1.36438,-0.51079 -2.34395,-1.56642 -0.97957,-1.02158 -0.97957,-2.34964 0,-2.00911 1.57431,-3.09879 1.57429,-1.05563 5.94733,-1.941 2.86872,-0.57889 5.49254,-1.12374 2.6588,-0.54484 5.70245,-1.49831 5.98233,-1.90695 8.81605,-5.21006 2.86872,-3.26906 2.86872,-8.51316 z"
           id="text2077"
           style="font-weight:800;font-size:65.0945px;font-family:OpenSans;-inkscape-font-specification:OpenSans-Extrabold;fill:#251f1d;stroke-width:1.40968"
           aria-label="SPECS" /><path
           style="font-size:44.4698px;font-family:'open sans';-inkscape-font-specification:'open sans';fill:#251f1d;stroke-width:0.885853"
           d="m 610.63874,483.24407 q -1.23269,-0.50488 -2.24127,-0.94665 -0.98616,-0.44177 -2.59988,-0.9256 -1.36718,-0.3997 -2.9809,-0.67317 -1.59131,-0.29452 -3.5188,-0.29452 -3.63087,0 -6.61178,0.94665 -2.95848,0.96768 -5.15493,3.00822 -2.15163,1.99848 -3.36192,5.06982 -1.21029,3.09238 -1.21029,7.17347 0,3.87073 1.16546,6.92103 1.16547,3.0503 3.36192,5.15396 2.12922,2.04055 5.13252,3.11341 3.02573,1.07286 6.70142,1.07286 2.68954,0 5.35666,-0.61006 2.68953,-0.61006 5.96179,-2.14572 v -4.9436 h -0.33618 q -2.75678,2.16677 -5.46872,3.15549 -2.71195,0.98871 -5.80491,0.98871 -2.53264,0 -4.57221,-0.77835 -2.01715,-0.75731 -3.60845,-2.37713 -1.54648,-1.57775 -2.42058,-3.99695 -0.85169,-2.39817 -0.85169,-5.55365 0,-3.30275 0.94133,-5.67987 0.96376,-2.37714 2.46541,-3.87073 1.5689,-1.5567 3.65328,-2.31403 2.10681,-0.73627 4.43774,-0.73627 3.20502,0 6.00662,1.03078 2.80159,1.0308 5.24459,3.09238 h 0.31377 z m 33.88812,-2.27195 h -5.76009 l -11.16155,12.45365 h -6.25317 v -12.45365 h -4.43773 v 31.32345 h 9.34613 q 3.02572,0 5.04288,-0.37866 2.01715,-0.35762 3.63086,-1.30427 1.81543,-1.07287 2.82401,-2.71372 1.03099,-1.61981 1.03099,-4.12317 0,-3.38689 -1.81544,-5.67987 -1.81543,-2.27194 -4.99804,-3.42896 z m -10.37711,22.50913 q 0,1.34633 -0.5155,2.37712 -0.49308,1.05183 -1.65854,1.76708 -0.96375,0.61006 -2.2861,0.84146 -1.32236,0.25244 -3.11538,0.25244 h -5.22218 V 496.8968 h 4.48256 q 2.10679,0 3.6757,0.33659 1.56889,0.35761 2.66712,1.30426 1.00856,0.88354 1.47923,2.01952 0.49309,1.157 0.49309,2.92408 z m 36.66729,-22.50913 h -21.98693 v 31.32345 h 21.98693 v -3.70245 h -17.5492 v -8.58291 h 17.5492 v -3.70244 h -17.5492 v -11.63321 h 17.5492 z m 33.35021,0 h -4.7291 l -3.27226,8.73017 h -14.43383 l -3.27227,-8.73017 h -4.50496 l 12.14772,31.32345 h 5.91697 z m -9.36854,12.30639 -5.84973,15.37773 -5.87215,-15.37773 z m 35.54666,15.31461 h -11.9236 v -27.621 h -4.43772 v 27.621 h -11.92361 v 3.70245 h 28.28493 z m 16.24927,-27.621 h -13.17871 v 3.19756 h 4.37049 v 24.92833 h -4.37049 v 3.19756 h 13.17871 v -3.19756 h -4.37049 v -24.92833 h 4.37049 z m 33.86569,31.32345 -12.14773,-31.32345 h -5.91696 l -12.14773,31.32345 h 4.75151 l 10.46676,-27.55791 10.46677,27.55791 z m 27.05224,-31.32345 h -21.98694 v 31.32345 h 21.98694 v -3.70245 h -17.54921 v -8.58291 h 17.54921 v -3.70244 h -17.54921 v -11.63321 h 17.54921 z"
           id="text2081"
           aria-label="CREATIVE" /></g><path
         id="path2083"
         style="fill:#9e152c;fill-opacity:1;fill-rule:nonzero;stroke:none;stroke-width:0.529292"
         d="m 3561.5215,6272.5719 c -27.8038,-34.1339 -80.897,-52.3204 -149.4985,-52.9291 -55.5969,-0.4922 -169.6911,36.0713 -214.2364,107.7798 -25.9459,41.7664 -43.1638,99.872 -16.8104,141.1886 25.9407,40.6656 94.4841,58.6138 203.5289,62.5306 96.0505,3.451 172.9197,-24.8767 185.0564,-39.8345 30.0374,-37.0081 24.7708,-178.4615 -8.04,-218.7354 z m -590.7061,54.8507 c -44.5505,-71.7085 -158.6446,-108.272 -214.2362,-107.7798 -68.6017,0.6087 -121.7003,18.7952 -149.4987,52.9291 -32.8108,40.2739 -38.0772,181.7273 -8.04,218.7354 12.1368,14.9578 89.0059,43.2855 185.0566,39.8345 109.0394,-3.9168 177.588,-21.865 203.5287,-62.5306 26.3534,-41.3166 9.1355,-99.4222 -16.8104,-141.1886 z m 723.262,205.1537 c -0.1262,15.9687 -14.1109,28.73 -35.6212,32.4985 -18.8588,3.308 -181.1186,8.2093 -265.4825,7.6111 -95.1192,-0.7197 -150.4884,-13.9362 -201.4115,-28.8199 -36.3043,-10.607 -67.6913,-19.7743 -107.2612,-22.008 -39.5698,2.2337 -70.9569,11.401 -107.2663,22.008 -50.918,14.8837 -106.2925,28.1002 -201.4063,28.8199 -84.3639,0.5982 -246.6238,-4.3031 -265.4824,-7.6111 -21.5158,-3.7685 -35.4944,-16.5298 -35.6214,-32.4985 l -0.4605,-57.9734 c -0.032,-4.1126 2.8212,-7.7171 6.9073,-8.7122 14.1162,-3.4563 30.1219,-7.3731 43.603,-111.2732 15.1908,-117.0582 86.9046,-176.8947 213.1514,-177.8474 112.2999,0 243.7178,41.0201 286.6118,151.711 30.7358,79.3144 45.228,98.5595 59.9634,99.2583 14.7355,-0.6988 29.2276,-19.9439 59.9636,-99.2583 42.8885,-110.6909 174.3117,-151.711 286.6117,-151.711 126.2469,0.9527 197.9606,60.7892 213.146,177.8474 13.4864,103.9001 29.4868,107.8169 43.6085,111.2732 4.0861,0.9951 6.939,4.5996 6.9071,8.7122 l -0.4605,57.9734" /><path
         id="path2085"
         style="fill:#251f1d;fill-opacity:1;fill-rule:nonzero;stroke:none;stroke-width:0.529292"
         d="m 3306.7096,6817.4413 c -83.0671,17.2761 -260.0306,122.6106 -247.9892,164.1177 44.8204,-71.2904 150.6417,-98.9407 163.9905,-98.099 l 14.0952,2.4082 c 72.767,3.4034 149.8373,-5.277 185.2098,-40.6443 32.1016,-32.1016 81.6646,-142.9143 79.7961,-252.4513 27.0046,-0.8785 50.5581,-1.8948 65.447,-2.8634 21.6111,75.5828 37.8179,160.2908 19.4038,217.7402 0,0 -11.0516,-29.4605 -23.9504,-35.5789 1.4821,32.6731 8.9081,141.0828 32.6679,144.0521 -22.8918,21.828 -47.5198,16.3339 -54.9458,0 -7.426,19.3033 -7.426,78.7058 19.3086,87.619 -26.7346,26.7293 -60.8898,22.2726 -71.2851,10.3954 -22.2726,44.5505 -72.7671,157.4114 -176.7201,178.2021 20.3619,-33.5148 32.6733,-72.7672 32.6733,-93.5577 -22.6431,59.106 -97.5275,125.9185 -168.4738,109.7434 -91.6364,-20.8912 -212.2039,6.595 -220.6091,47.6734 -14.8518,-17.8213 -7.4577,-62.6153 17.8213,-78.7111 -51.9765,-4.4514 -248.8626,79.9814 -261.0786,171.8983 -51.6696,-73.1324 -4.8113,-233.7197 54.6546,-238.7214 -19.7372,-17.2233 -75.6252,9.0402 -89.101,41.5812 -30.8524,-24.1834 -31.5299,-96.9082 -4.4567,-132.1697 -37.5533,11.3111 -73.3598,69.9037 -58.5132,95.151 -65.5741,-38.7018 -95.8125,-194.6261 -48.409,-282.2664 29.5874,-54.7076 27.3379,-169.2041 40.9778,-242.691 10.2365,0.5928 23.4318,1.191 38.3683,1.7573 -12.1525,143.6657 30.7466,289.6498 131.0263,304.6923 94.2988,14.1427 193.4457,-13.7987 273.0036,-23.8076 -22.0185,18.5888 -35.9442,40.401 -29.4974,62.6312 33.8324,-56.8936 144.8462,-119.4454 286.5853,-118.101" /><path
         id="path2087"
         style="fill:#1c1b1b;fill-opacity:1;fill-rule:nonzero;stroke:none;stroke-width:0.529292"
         d="m 2848.6125,6432.4341 c -11.6709,0 -22.6219,-3.0593 -32.1334,-8.3787 11.4539,-23.8552 26.7399,-55.0464 26.7399,-55.0464 l -56.9678,18.8535 c -2.3077,-6.7221 -3.6203,-13.9046 -3.6203,-21.4099 0,-36.4418 29.5399,-65.987 65.9816,-65.987 36.447,0 65.9869,29.5452 65.9869,65.987 0,36.4418 -29.5399,65.9815 -65.9869,65.9815" /><path
         id="path2089"
         style="fill:#1c1b1b;fill-opacity:1;fill-rule:nonzero;stroke:none;stroke-width:0.529292"
         d="m 3294.9275,6424.6588 c -11.6761,0 -22.6219,-3.0646 -32.1385,-8.3839 11.4592,-23.8553 26.7452,-55.0464 26.7452,-55.0464 l -56.9731,18.8533 c -2.3077,-6.722 -3.6204,-13.9045 -3.6204,-21.4099 0,-36.4417 29.5452,-65.9868 65.9868,-65.9868 36.4418,0 65.9816,29.5451 65.9816,65.9868 0,36.4418 -29.5398,65.9869 -65.9816,65.9869" /></g></g></svg>
