<?xml version="1.0" encoding="UTF-8" standalone="no"?>
<svg
   viewBox="0 0 783.08132 157.2481"
   height="157.24811"
   width="783.08136"
   xml:space="preserve"
   id="svg833"
   version="1.1"
   xmlns="http://www.w3.org/2000/svg"
   xmlns:svg="http://www.w3.org/2000/svg"
   xmlns:rdf="http://www.w3.org/1999/02/22-rdf-syntax-ns#"
   xmlns:cc="http://creativecommons.org/ns#"
   xmlns:dc="http://purl.org/dc/elements/1.1/"><metadata
     id="metadata839"><rdf:RDF><cc:Work
         rdf:about=""><dc:format>image/svg+xml</dc:format><dc:type
           rdf:resource="http://purl.org/dc/dcmitype/StillImage" /></cc:Work></rdf:RDF></metadata><defs
     id="defs837" /><g
     style="mix-blend-mode:normal"
     transform="matrix(1.3333333,0,0,-1.3333333,-388.04623,979.91803)"
     id="g841"><g
       transform="scale(0.1)"
       id="g843"><g
         transform="matrix(10,0,0,10,708.33143,1365.9833)"
         id="g2069"><path
           d="m 363.01546,518.79146 h -13.73984 l -23.46911,36.41317 V 518.79146 H 312.7351 v 53.05207 h 17.04482 l 20.16413,-30.39182 v 30.39182 h 13.07141 z m 54.10521,0 h -39.99404 v 53.05207 h 39.99404 v -10.26125 h -25.80859 v -9.15673 h 23.95186 V 542.1643 h -23.95186 v -13.1116 h 25.80859 z m 42.96482,36.8051 q 0,1.99524 -0.85409,3.42041 -0.8541,1.42518 -2.93364,2.24465 -1.44825,0.57007 -3.37925,0.67696 -1.93101,0.14251 -4.4933,0.14251 h -5.16172 v -14.28736 h 4.38189 q 3.41639,0 5.71874,0.32067 2.30235,0.32066 3.86201,1.4608 1.48539,1.10451 2.15381,2.42279 0.70555,1.35392 0.70555,3.59857 z m 22.24368,-36.8051 H 464.913 l -15.07667,19.45361 h -6.57284 v -19.45361 h -14.18545 v 53.05207 h 23.91474 q 4.90177,0 8.42956,-0.53443 3.5278,-0.53445 6.60998,-2.31592 3.11931,-1.78146 4.93891,-4.63181 1.85674,-2.81471 1.85674,-7.09024 0,-5.87883 -2.85938,-9.58428 -2.82223,-3.70546 -8.09536,-6.16388 z m 58.48712,26.47259 q 0,-7.4109 -3.52779,-13.28974 -3.5278,-5.84321 -8.91232,-8.97859 -4.04768,-2.35154 -8.87519,-3.2779 -4.82751,-0.92636 -11.43748,-0.92636 h -19.4957 v 53.05207 h 20.05272 q 6.75851,0 11.66029,-1.1045 4.90178,-1.06889 8.2439,-3.06412 5.71874,-3.34917 8.98659,-9.04986 3.30498,-5.66507 3.30498,-13.361 z m -14.74246,0.10689 q 0,5.23751 -2.00528,8.94296 -1.96813,3.74108 -6.27575,5.84322 -2.19095,1.03324 -4.4933,1.38954 -2.26522,0.39192 -6.86991,0.39192 h -3.60207 v -33.20654 h 3.60207 q 5.08744,0 7.46406,0.42756 2.37662,0.46317 4.64183,1.63894 3.89914,2.13776 5.71875,5.70069 1.8196,3.59857 1.8196,8.87171 z"
           id="text2073"
           style="font-weight:800;font-size:74.4944px;font-family:OpenSans;-inkscape-font-specification:OpenSans-Extrabold;fill:#251f1d;stroke-width:0.877324"
           aria-label="NERD" /><path
           d="m 603.12384,536.09139 q 0,-7.49159 -6.54208,-12.19086 -6.50708,-4.66521 -17.70208,-4.66521 -6.4721,0 -11.29994,1.08969 -4.79285,1.12374 -8.99096,2.82636 v 12.15681 h 1.46933 q 4.16314,-3.235 9.30583,-4.97169 5.17768,-1.73669 9.93556,-1.73669 1.22445,0 3.21856,0.20431 1.9941,0.20433 3.25353,0.68106 1.53933,0.61295 2.51888,1.53237 1.01454,0.91942 1.01454,2.72421 0,1.66858 -1.46933,2.86042 -1.43436,1.2259 -4.2331,1.8729 -2.93869,0.68106 -6.22723,1.25995 -3.25353,0.61295 -6.12224,1.53237 -6.57706,2.07721 -9.48076,5.61869 -2.86872,3.57552 -2.86872,8.85369 0,7.08295 6.50709,11.54384 6.54207,4.49495 16.79247,4.49495 5.14271,0 10.14546,-0.98752 5.03775,-0.95347 8.71111,-2.41774 v -11.68006 h -1.43436 q -3.14859,2.45179 -7.73154,4.08632 -4.54796,1.66858 -9.30584,1.66858 -1.67924,0 -3.35849,-0.23837 -1.64426,-0.20432 -3.18358,-0.81726 -1.36438,-0.51079 -2.34394,-1.56642 -0.97957,-1.02158 -0.97957,-2.34964 0,-2.00911 1.5743,-3.09879 1.57429,-1.05563 5.94733,-1.941 2.86872,-0.57889 5.49255,-1.12374 2.65881,-0.54484 5.70245,-1.49831 5.98232,-1.90695 8.81604,-5.21006 2.86873,-3.26906 2.86873,-8.51316 z m 52.19662,18.76301 q 0,-3.40527 -1.22445,-6.67432 -1.22446,-3.235 -3.49843,-5.44843 -3.11361,-2.99663 -6.96188,-4.52901 -3.81331,-1.53236 -9.51575,-1.53236 h -8.36125 v -16.51553 h -13.43399 v 50.7044 h 22.1101 q 4.96777,0 8.36125,-0.85132 3.42847,-0.81726 6.0523,-2.48585 3.14859,-2.0091 4.79285,-5.14195 1.67925,-3.13285 1.67925,-7.52563 z m -13.88878,-0.30648 q 0,2.14532 -1.18946,3.67768 -1.18948,1.56643 -2.76377,2.17938 -2.09906,0.81726 -4.09317,0.88537 -1.99411,0.10219 -5.31762,0.10219 h -2.30896 v -15.18749 h 3.84827 q 3.42847,0 5.63249,0.40863 2.23899,0.40865 3.74332,1.63454 1.29441,1.08968 1.85416,2.58799 0.59474,1.53237 0.59474,3.71174 z m 61.08266,-34.39317 h -37.67813 v 50.7044 h 37.67813 v -9.80717 h -24.31412 v -8.75154 h 22.56489 v -9.80715 h -22.56489 v -12.53138 h 24.31412 z m 34.80941,-0.98753 q -5.80742,0 -10.7402,1.66858 -4.89781,1.66857 -8.43122,4.97168 -3.53342,3.30311 -5.49255,8.24075 -1.92413,4.93762 -1.92413,11.40763 0,6.02733 1.85417,10.9309 1.85417,4.90359 5.38758,8.41102 3.39348,3.37121 8.39624,5.21005 5.03775,1.83884 10.98508,1.83884 3.28853,0 5.91236,-0.37458 2.65881,-0.34052 4.89781,-0.91942 2.34395,-0.64699 4.2331,-1.46427 1.92414,-0.78321 3.3585,-1.46426 v -12.293 h -1.53932 q -0.97956,0.81727 -2.48388,1.94099 -1.46934,1.12374 -3.35849,2.21345 -1.92415,1.08967 -4.16314,1.83883 -2.23899,0.74916 -4.79286,0.74916 -2.83372,0 -5.38759,-0.88537 -2.55386,-0.85131 -4.72287,-2.86042 -2.06409,-1.94101 -3.3585,-5.14197 -1.25944,-3.20094 -1.25944,-7.764 0,-4.76736 1.36438,-7.96832 1.39938,-3.20095 3.49844,-5.03979 2.13404,-1.8729 4.75787,-2.69016 2.62383,-0.78321 5.17767,-0.78321 2.44891,0 4.82784,0.7151 2.41393,0.7151 4.44301,1.941 1.71424,0.98753 3.18359,2.11127 1.46933,1.12374 2.41391,1.941 h 1.39938 v -12.12274 q -1.95913,-0.85133 -3.74333,-1.60048 -1.7842,-0.74916 -3.74333,-1.294 -2.55384,-0.71511 -4.79284,-1.08968 -2.239,-0.37458 -6.15724,-0.37458 z m 70.00366,16.92417 q 0,-7.49159 -6.54207,-12.19086 -6.50709,-4.66521 -17.70208,-4.66521 -6.47211,0 -11.29994,1.08969 -4.79285,1.12374 -8.99097,2.82636 v 12.15681 h 1.46934 q 4.16314,-3.235 9.30583,-4.97169 5.17768,-1.73669 9.93555,-1.73669 1.22446,0 3.21857,0.20431 1.99409,0.20433 3.25353,0.68106 1.53932,0.61295 2.51888,1.53237 1.01454,0.91942 1.01454,2.72421 0,1.66858 -1.46934,2.86042 -1.43435,1.2259 -4.2331,1.8729 -2.93868,0.68106 -6.22722,1.25995 -3.25353,0.61295 -6.12225,1.53237 -6.57705,2.07721 -9.48076,5.61869 -2.86871,3.57552 -2.86871,8.85369 0,7.08295 6.50709,11.54384 6.54207,4.49495 16.79247,4.49495 5.1427,0 10.14545,-0.98752 5.03775,-0.95347 8.71111,-2.41774 v -11.68006 h -1.43437 q -3.14857,2.45179 -7.73152,4.08632 -4.54797,1.66858 -9.30584,1.66858 -1.67924,0 -3.35849,-0.23837 -1.64427,-0.20432 -3.18358,-0.81726 -1.36438,-0.51079 -2.34395,-1.56642 -0.97957,-1.02158 -0.97957,-2.34964 0,-2.00911 1.57431,-3.09879 1.57429,-1.05563 5.94733,-1.941 2.86872,-0.57889 5.49254,-1.12374 2.6588,-0.54484 5.70245,-1.49831 5.98233,-1.90695 8.81605,-5.21006 2.86872,-3.26906 2.86872,-8.51316 z"
           id="text2077"
           style="font-weight:800;font-size:65.0945px;font-family:OpenSans;-inkscape-font-specification:OpenSans-Extrabold;fill:#251f1d;stroke-width:1.40968"
           aria-label="SPECS" /><path
           style="font-size:44.4698px;font-family:'open sans';-inkscape-font-specification:'open sans';fill:#251f1d;stroke-width:0.885853"
           d="m 610.63874,483.24407 q -1.23269,-0.50488 -2.24127,-0.94665 -0.98616,-0.44177 -2.59988,-0.9256 -1.36718,-0.3997 -2.9809,-0.67317 -1.59131,-0.29452 -3.5188,-0.29452 -3.63087,0 -6.61178,0.94665 -2.95848,0.96768 -5.15493,3.00822 -2.15163,1.99848 -3.36192,5.06982 -1.21029,3.09238 -1.21029,7.17347 0,3.87073 1.16546,6.92103 1.16547,3.0503 3.36192,5.15396 2.12922,2.04055 5.13252,3.11341 3.02573,1.07286 6.70142,1.07286 2.68954,0 5.35666,-0.61006 2.68953,-0.61006 5.96179,-2.14572 v -4.9436 h -0.33618 q -2.75678,2.16677 -5.46872,3.15549 -2.71195,0.98871 -5.80491,0.98871 -2.53264,0 -4.57221,-0.77835 -2.01715,-0.75731 -3.60845,-2.37713 -1.54648,-1.57775 -2.42058,-3.99695 -0.85169,-2.39817 -0.85169,-5.55365 0,-3.30275 0.94133,-5.67987 0.96376,-2.37714 2.46541,-3.87073 1.5689,-1.5567 3.65328,-2.31403 2.10681,-0.73627 4.43774,-0.73627 3.20502,0 6.00662,1.03078 2.80159,1.0308 5.24459,3.09238 h 0.31377 z m 33.88812,-2.27195 h -5.76009 l -11.16155,12.45365 h -6.25317 v -12.45365 h -4.43773 v 31.32345 h 9.34613 q 3.02572,0 5.04288,-0.37866 2.01715,-0.35762 3.63086,-1.30427 1.81543,-1.07287 2.82401,-2.71372 1.03099,-1.61981 1.03099,-4.12317 0,-3.38689 -1.81544,-5.67987 -1.81543,-2.27194 -4.99804,-3.42896 z m -10.37711,22.50913 q 0,1.34633 -0.5155,2.37712 -0.49308,1.05183 -1.65854,1.76708 -0.96375,0.61006 -2.2861,0.84146 -1.32236,0.25244 -3.11538,0.25244 h -5.22218 V 496.8968 h 4.48256 q 2.10679,0 3.6757,0.33659 1.56889,0.35761 2.66712,1.30426 1.00856,0.88354 1.47923,2.01952 0.49309,1.157 0.49309,2.92408 z m 36.66729,-22.50913 h -21.98693 v 31.32345 h 21.98693 v -3.70245 h -17.5492 v -8.58291 h 17.5492 v -3.70244 h -17.5492 v -11.63321 h 17.5492 z m 33.35021,0 h -4.7291 l -3.27226,8.73017 h -14.43383 l -3.27227,-8.73017 h -4.50496 l 12.14772,31.32345 h 5.91697 z m -9.36854,12.30639 -5.84973,15.37773 -5.87215,-15.37773 z m 35.54666,15.31461 h -11.9236 v -27.621 h -4.43772 v 27.621 h -11.92361 v 3.70245 h 28.28493 z m 16.24927,-27.621 h -13.17871 v 3.19756 h 4.37049 v 24.92833 h -4.37049 v 3.19756 h 13.17871 v -3.19756 h -4.37049 v -24.92833 h 4.37049 z m 33.86569,31.32345 -12.14773,-31.32345 h -5.91696 l -12.14773,31.32345 h 4.75151 l 10.46676,-27.55791 10.46677,27.55791 z m 27.05224,-31.32345 h -21.98694 v 31.32345 h 21.98694 v -3.70245 h -17.54921 v -8.58291 h 17.54921 v -3.70244 h -17.54921 v -11.63321 h 17.54921 z"
           id="text2081"
           aria-label="CREATIVE" /></g><path
         id="path2083"
         style="fill:#9e152c;fill-opacity:1;fill-rule:nonzero;stroke:none;stroke-width:0.385622"
         d="m 3702.6273,6564.8599 c -20.2568,-24.8687 -58.9385,-38.1187 -108.919,-38.5622 -40.5058,-0.3586 -123.6305,26.2802 -156.0845,78.5243 -18.9032,30.4294 -31.4475,72.763 -12.2474,102.8647 18.8994,29.6274 68.8375,42.7038 148.2834,45.5574 69.9788,2.5143 125.9828,-18.1242 134.8251,-29.0219 21.8841,-26.9627 18.0471,-130.0203 -5.8576,-159.3623 z m -430.3661,39.9621 c -32.4578,-52.2441 -115.5825,-78.8829 -156.0844,-78.5243 -49.9806,0.4435 -88.6662,13.6935 -108.9191,38.5622 -23.9047,29.342 -27.7416,132.3996 -5.8576,159.3623 8.8424,10.8977 64.8463,31.5362 134.8252,29.0219 79.442,-2.8536 129.3839,-15.93 148.2833,-45.5574 19.2001,-30.1017 6.6558,-72.4353 -12.2474,-102.8647 z m 526.9413,149.4672 c -0.092,11.6342 -10.2807,20.9316 -25.9523,23.6772 -13.7398,2.4101 -131.9561,5.981 -193.4205,5.5452 -69.3002,-0.5244 -109.6401,-10.1534 -146.7408,-20.9971 -26.4499,-7.7279 -49.3173,-14.4068 -78.1464,-16.0342 -28.8291,1.6274 -51.6965,8.3063 -78.1502,16.0342 -37.0969,10.8437 -77.4407,20.4727 -146.737,20.9971 -61.4643,0.4358 -179.6807,-3.1351 -193.4204,-5.5452 -15.6756,-2.7456 -25.8599,-12.043 -25.9524,-23.6772 l -0.3355,-42.2372 c -0.023,-2.9963 2.0554,-5.6224 5.0324,-6.3474 10.2845,-2.5181 21.9457,-5.3717 31.7675,-81.0694 11.0674,-85.2842 63.3154,-128.8788 155.294,-129.5729 81.8175,0 177.5636,29.8857 208.8145,110.5309 22.393,57.7855 32.9514,71.8067 43.6871,72.3158 10.7357,-0.5091 21.2941,-14.5303 43.6872,-72.3158 31.2469,-80.6452 126.9969,-110.5309 208.8144,-110.5309 91.9787,0.6941 144.2266,44.2887 155.2901,129.5729 9.8257,75.6977 21.483,78.5513 31.7715,81.0694 2.977,0.725 5.0555,3.3511 5.0323,6.3474 l -0.3355,42.2372" /><path
         id="path2085"
         style="fill:#251f1d;fill-opacity:1;fill-rule:nonzero;stroke:none;stroke-width:0.385622"
         d="m 3516.981,6961.8311 c -60.5196,12.5867 -189.4485,89.3294 -180.6756,119.5699 32.6545,-51.9395 109.7519,-72.0844 119.4773,-71.4712 l 10.2692,1.7545 c 53.0153,2.4796 109.1658,-3.8446 134.9369,-29.6119 23.388,-23.388 59.4977,-104.1219 58.1364,-183.9264 19.6745,-0.6401 36.8347,-1.3805 47.6822,-2.0862 15.745,55.0668 27.5527,116.7818 14.1369,158.6373 0,0 -8.0518,-21.4638 -17.4494,-25.9215 1.0798,23.8044 6.4901,102.7876 23.8006,104.9509 -16.6781,15.9031 -34.6211,11.9003 -40.0314,0 -5.4103,14.0637 -5.4103,57.3421 14.0675,63.8359 -19.4778,19.474 -44.362,16.227 -51.9356,7.5737 -16.227,32.4578 -53.0154,114.684 -128.7516,129.8313 14.8349,-24.4176 23.8045,-53.0154 23.8045,-68.1626 -16.4969,43.0624 -71.0548,91.7395 -122.7436,79.9549 -66.7628,-15.2205 -154.6037,4.8049 -160.7274,34.733 -10.8205,-12.9839 -5.4334,-45.6191 12.9839,-57.3459 -37.8681,-3.2431 -181.3119,58.2714 -190.212,125.2386 -37.6445,-53.2815 -3.5053,-170.2793 39.8193,-173.9234 -14.3798,-12.5482 -55.0977,6.5864 -64.9156,30.2945 -22.4779,-17.6191 -22.9715,-70.6036 -3.247,-96.2938 -27.3599,8.2408 -53.4472,50.9292 -42.6305,69.3234 -47.7748,-28.1967 -69.8054,-141.7972 -35.269,-205.6486 21.5563,-39.8579 19.9174,-123.2757 29.8549,-176.8155 7.4579,0.4319 17.0715,0.8677 27.9537,1.2803 -8.8539,104.6694 22.4008,211.0279 95.4608,221.9873 68.7025,10.3038 140.9372,-10.0532 198.9001,-17.3453 -16.0419,13.5431 -26.1876,29.4346 -21.4907,45.6307 24.649,-41.4505 105.5294,-87.0234 208.7952,-86.0439" /><path
         id="path2087"
         style="fill:#1c1b1b;fill-opacity:1;fill-rule:nonzero;stroke:none;stroke-width:0.385622"
         d="m 3183.2288,6681.3294 c -8.503,0 -16.4815,-2.2289 -23.4112,-6.1044 8.3449,-17.38 19.4817,-40.1047 19.4817,-40.1047 l -41.5046,13.7359 c -1.6813,-4.8974 -2.6376,-10.1303 -2.6376,-15.5984 0,-26.5501 21.5216,-48.0756 48.0717,-48.0756 26.5539,0 48.0755,21.5255 48.0755,48.0756 0,26.5501 -21.5216,48.0716 -48.0755,48.0716" /><path
         id="path2089"
         style="fill:#1c1b1b;fill-opacity:1;fill-rule:nonzero;stroke:none;stroke-width:0.385622"
         d="m 3508.397,6675.6646 c -8.5068,0 -16.4815,-2.2327 -23.4149,-6.1082 8.3487,-17.38 19.4855,-40.1047 19.4855,-40.1047 l -41.5084,13.7358 c -1.6813,-4.8974 -2.6377,-10.1303 -2.6377,-15.5984 0,-26.5501 21.5255,-48.0755 48.0755,-48.0755 26.5501,0 48.0717,21.5254 48.0717,48.0755 0,26.5501 -21.5216,48.0755 -48.0717,48.0755" /></g></g></svg>
